<?xml version="1.0" encoding="utf-8"?>
<!-- Generator: Adobe Illustrator 16.0.0, SVG Export Plug-In . SVG Version: 6.00 Build 0)  -->
<!DOCTYPE svg PUBLIC "-//W3C//DTD SVG 1.1//EN" "http://www.w3.org/Graphics/SVG/1.1/DTD/svg11.dtd">
<svg version="1.1" id="图层_1" xmlns="http://www.w3.org/2000/svg" xmlns:xlink="http://www.w3.org/1999/xlink" x="0px" y="0px"
	 width="100px" height="60px" viewBox="0 0 100 60" enable-background="new 0 0 100 60" xml:space="preserve">
<path fill="#FFFFFF" stroke="#595757" stroke-miterlimit="10" d="M91,5H15c-2.761,0-5,3.755-5,8.387v10.041l-3.654,0.924L1,25.703
	l4.478,3.219l4.479,3.217L10,31.91v16.703C10,53.244,12.239,57,15,57h76c2.762,0,5-3.756,5-8.387V13.387C96,8.755,93.762,5,91,5z"/>
<g>
	<polygon fill="#E90022" points="9,32 9.193,32.139 9.219,32 	"/>
	<path fill="#E90022" d="M9.236,32v16.613c0,4.631,2.239,8.387,5,8.387h76c2.762,0,5-3.756,5-8.387V32H9.236z"/>
</g>
</svg>
