<?xml version="1.0" encoding="utf-8"?>
<!-- Generator: Adobe Illustrator 16.0.0, SVG Export Plug-In . SVG Version: 6.00 Build 0)  -->
<!DOCTYPE svg PUBLIC "-//W3C//DTD SVG 1.1//EN" "http://www.w3.org/Graphics/SVG/1.1/DTD/svg11.dtd">
<svg version="1.1" id="图层_1" xmlns="http://www.w3.org/2000/svg" xmlns:xlink="http://www.w3.org/1999/xlink" x="0px" y="0px"
	 width="100px" height="100px" viewBox="0 0 100 100" enable-background="new 0 0 100 100" xml:space="preserve">
<g>
	<path fill="#FF5811" d="M65.136,67.05v5.872c12.201,1.68,20.67,5.315,20.67,9.544c0,5.822-16.029,10.541-35.805,10.541h-0.002
		c-19.774,0-35.804-4.719-35.804-10.541c0-4.229,8.471-7.864,20.669-9.544V67.05C14.651,69.139,0,75.297,0,82.57
		c0,8.993,22.386,16.284,50.001,16.284C77.615,98.854,100,91.563,100,82.57C100,75.297,85.349,69.139,65.136,67.05z"/>
	<path fill="#FF5811" d="M42.245,83.987h7.754h0.002h7.434V51.351h10.177V24.207c-1.981-2.96-8.377-2.908-8.377-2.908h-6.102v-1.425
		c3.782-1.305,6.515-4.856,6.515-9.083c0-5.327-4.317-9.646-9.646-9.646c-5.328,0-9.646,4.318-9.646,9.646
		c0,4.226,2.732,7.777,6.515,9.083v1.425h-5.793c-6.791,0-8.688,2.908-8.688,2.908v27.467h9.856V83.987z"/>
</g>
</svg>
